<svg width="800" height="800" viewBox="0 0 800 800" fill="none" xmlns="http://www.w3.org/2000/svg">
<path d="M400.667 96.9971C290.332 96.9971 200.666 186.664 200.666 296.997V393.33C200.666 413.663 191.999 444.663 181.666 461.997L143.332 525.663C119.666 564.997 135.999 608.663 179.332 623.33C322.999 671.33 478 671.33 621.667 623.33C662 609.997 679.667 562.33 657.667 525.663L619.333 461.997C609.333 444.663 600.667 413.663 600.667 393.33V296.997C600.667 186.997 510.667 96.9971 400.667 96.9971Z" stroke="black" stroke-width="50" stroke-miterlimit="10" stroke-linecap="round"/>
<path d="M462.333 106.665C452 103.665 441.333 101.332 430.333 99.9984C398.333 95.9984 367.667 98.3317 339 106.665C348.667 81.9984 372.667 64.665 400.667 64.665C428.667 64.665 452.667 81.9984 462.333 106.665Z" stroke="black" stroke-width="50" stroke-miterlimit="10" stroke-linecap="round" stroke-linejoin="round"/>
<path d="M500.667 635.337C500.667 690.337 455.667 735.337 400.667 735.337C373.334 735.337 348.001 724.004 330.001 706.004C312.001 688.004 300.668 662.67 300.668 635.337" stroke="black" stroke-width="50" stroke-miterlimit="10"/>
<circle cx="694" cy="106" r="106" fill="#C9614A"/>
</svg>
